Coordinates
version=1
nRows=13
nColumns=40
inDegrees=yes

Units are S.I. units (second, meters, Newtons, ...)
Angles are in degrees.

endheader
time	pelvis_tilt	pelvis_list	pelvis_rotation	pelvis_tx	pelvis_ty	pelvis_tz	hip_flexion_r	hip_adduction_r	hip_rotation_r	knee_angle_r	knee_angle_r_beta	ankle_angle_r	subtalar_angle_r	mtp_angle_r	hip_flexion_l	hip_adduction_l	hip_rotation_l	knee_angle_l	knee_angle_l_beta	ankle_angle_l	subtalar_angle_l	mtp_angle_l	lumbar_extension	lumbar_bending	lumbar_rotation	arm_flex_r	arm_add_r	arm_rot_r	elbow_flex_r	pro_sup_r	wrist_flex_r	wrist_dev_r	arm_flex_l	arm_add_l	arm_rot_l	elbow_flex_l	pro_sup_l	wrist_flex_l	wrist_dev_l
     14.78750000	     -3.75406436	     -4.57657571	      6.66791644	      0.96851664	      0.91551351	      0.49705546	     -3.89879642	      2.99172183	    -16.54079613	     14.33474447	     14.33474447	     20.04910417	      3.06512021	     -2.39853666	     28.88926311	     -6.25708822	      3.54314262	     28.89415175	     28.89415175	      6.28188317	    -14.60140054	      5.48016235	     -7.65862672	      4.08777883	      5.43224340	     42.60377626	    -16.88308877	    -16.11145052	     64.71143864	     45.61285358	      0.00000000	      0.00000000	     -4.53798207	     -7.53833288	     -4.52332845	     41.83812869	     46.65071184	      0.00000000	      0.00000000
     14.80685714	     -3.93442835	     -4.55784501	      6.23991616	      0.96979755	      0.91603431	      0.49269505	     -3.91452859	      2.42956075	    -16.59177508	     14.90382012	     14.90382012	     19.82051657	      3.70007563	     -2.58495441	     28.62378856	     -6.04620748	      3.40398327	     29.22593869	     29.22593869	      6.89774543	    -15.07215807	      5.88961623	     -7.59068131	      4.05111561	      5.77984863	     41.76163240	    -16.84673856	    -16.05729816	     62.27112039	     45.68885658	      0.00000000	      0.00000000	     -3.17942032	     -7.63874462	     -4.70405673	     42.68105707	     46.67883420	      0.00000000	      0.00000000
     14.82621429	     -4.07710631	     -4.53889664	      5.82747653	      0.97103986	      0.91670417	      0.48820419	     -3.92551524	      1.82871740	    -16.76875092	     15.54289908	     15.54289908	     19.48548017	      4.43017506	     -3.02182994	     28.32949146	     -5.83963165	      3.19822072	     29.59611326	     29.59611326	      7.88459831	    -15.29476849	      7.10551634	     -7.51214426	      4.06199761	      5.23558805	     41.93768648	    -15.87088209	    -15.80812570	     57.65977317	     45.82769853	      0.00000000	      0.00000000	     -2.29654339	     -8.00865032	     -4.60217625	     43.47305659	     46.64559178	      0.00000000	      0.00000000
     14.84557143	     -4.16259196	     -4.62434860	      5.42690078	      0.97236209	      0.91749303	      0.48374242	     -3.98578894	      1.42105172	    -16.55061285	     16.12617425	     16.12617425	     19.11411491	      4.58250285	     -3.07745637	     27.88384162	     -5.77987156	      2.93006643	     29.75057232	     29.75057232	      8.38822550	    -15.51397835	      6.99111453	     -7.59749430	      4.21047424	      5.16072541	     40.55282976	    -15.41068276	    -15.67104996	     56.65691445	     45.84883540	      0.00000000	      0.00000000	     -0.94453973	     -8.30174437	     -4.66136824	     44.08207880	     46.66900486	      0.00000000	      0.00000000
     14.86492857	     -4.39124750	     -4.47402943	      4.92022634	      0.97329673	      0.91807829	      0.47906557	     -3.45800379	      0.51986110	    -16.47163592	     17.56928128	     17.56928128	     18.89005046	      4.90094266	     -3.67861448	     27.48190491	     -5.51120619	      2.34970793	     29.74229518	     29.74229518	      8.93740935	    -15.51407413	      7.07222497	     -7.54282837	      4.06895193	      5.81673615	     39.25886396	    -15.90276053	    -15.66358210	     53.63310634	     45.94683303	      0.00000000	      0.00000000	      0.70241630	     -8.48662615	     -4.46585723	     44.97030538	     46.66613070	      0.00000000	      0.00000000
     14.88428571	     -4.46852521	     -4.50002681	      4.55658511	      0.97437353	      0.91883166	      0.47429104	     -3.28496317	     -0.09296785	    -16.48886474	     18.55171126	     18.55171126	     18.17656265	      5.25805338	     -5.10831836	     27.02306316	     -5.35814699	      2.04071202	     29.87253147	     29.87253147	      9.69400594	    -15.55862718	      7.67580448	     -7.48451611	      4.22581127	      5.18781621	     39.40573030	    -15.16444496	    -15.41465558	     47.67496628	     46.13268285	      0.00000000	      0.00000000	      1.95203835	     -9.24258964	     -2.95761950	     45.18607652	     46.50665539	      0.00000000	      0.00000000
     14.90364286	     -4.57718162	     -4.42507326	      4.13378434	      0.97536971	      0.91947539	      0.46952503	     -2.79472305	     -0.86424759	    -16.16842709	     20.06892704	     20.06892704	     17.70915493	      5.08612132	     -5.90408150	     26.50994133	     -5.13541041	      1.55017364	     29.85312861	     29.85312861	     10.22577566	    -15.57501872	      7.62757276	     -7.51595262	      4.24099907	      5.21909125	     37.76809201	    -15.10096547	    -15.40626937	     45.56806240	     46.19378353	      0.00000000	      0.00000000	      3.41865827	     -9.65490203	     -2.78654054	     46.03693110	     46.50646020	      0.00000000	      0.00000000
     14.92300000	     -4.57467617	     -4.39533573	      3.80112918	      0.97638965	      0.92020105	      0.46465887	     -2.48095626	     -1.53650411	    -15.84610446	     21.37338815	     21.37338815	     16.56811021	      4.67661967	     -8.45801402	     25.92350316	     -4.91579368	      1.18510923	     29.87810010	     29.87810010	     10.81963667	    -15.60892973	      7.87047142	     -7.57197212	      4.35959250	      4.82841642	     36.92706169	    -14.77193971	    -15.42398222	     41.03774257	     46.33478495	      0.00000000	      0.00000000	      4.88608403	    -10.43847180	     -1.42659719	     46.48084335	     46.38061891	      0.00000000	      0.00000000
     14.94235714	     -4.57108430	     -4.34574050	      3.45002514	      0.97734400	      0.92085391	      0.45983121	     -1.86823941	     -2.30943692	    -15.44527879	     23.27763460	     23.27763460	     15.95421477	      4.28670456	     -9.28369669	     25.31419468	     -4.67893043	      0.80047661	     29.85140721	     29.85140721	     11.29409831	    -15.63826201	      7.75726296	     -7.71415855	      4.46073561	      4.65892300	     34.80341266	    -14.62887733	    -15.44874494	     39.52914552	     46.37566396	      0.00000000	      0.00000000	      6.36918208	    -10.88147479	     -1.46106860	     47.23281095	     46.40511000	      0.00000000	      0.00000000
     14.96171429	     -4.55571666	     -4.36013098	      3.14402650	      0.97830093	      0.92134031	      0.45498980	     -1.28855925	     -2.94070937	    -14.88890937	     24.92312841	     24.92312841	     13.80457485	      2.90061564	    -14.14129722	     24.77296180	     -4.46788606	      0.53989408	     29.94984314	     29.94984314	     11.95006715	    -15.74379081	      8.05254686	     -7.70865406	      4.65928919	      4.42111781	     33.33897988	    -14.48619111	    -15.83383052	     35.72242595	     46.49998938	      0.00000000	      0.00000000	      7.93572290	    -11.66076303	     -0.09611582	     47.83156055	     46.30028879	      0.00000000	      0.00000000
     14.98107143	     -4.51024876	     -4.31545994	      2.80509624	      0.97918264	      0.92182484	      0.45021050	     -0.36438123	     -3.74935363	    -14.29808934	     27.40064285	     27.40064285	     12.92678494	      2.12672585	    -15.07674181	     24.15303902	     -4.20230781	      0.26755509	     29.95088254	     29.95088254	     12.39586363	    -15.85828355	      7.96064631	     -7.84721754	      4.80006962	      4.24803791	     30.83392734	    -14.45634406	    -15.89696943	     34.30578775	     46.53846325	      0.00000000	      0.00000000	      9.45537065	    -12.08494506	     -0.27621826	     48.66484964	     46.34197246	      0.00000000	      0.00000000
     15.00042857	     -4.32412147	     -4.35431092	      2.57496977	      0.98013388	      0.92227559	      0.44543807	      0.51355394	     -4.45308501	    -13.78175369	     30.05441386	     30.05441386	     11.82691931	      1.12121323	    -16.06515203	     23.45787303	     -3.98917934	      0.09122371	     30.06982326	     30.06982326	     12.95050632	    -16.05187068	      7.84347442	     -8.04384153	      5.05459128	      3.88036061	     28.28873041	    -14.30931479	    -15.93520784	     32.90486939	     46.57607681	      0.00000000	      0.00000000	     11.02714707	    -12.65677843	     -0.45073986	     49.44597184	     46.38264821	      0.00000000	      0.00000000
     15.01978571	     -4.37480921	     -4.33038849	      2.17899446	      0.98070162	      0.92223086	      0.44091465	      2.03862916	     -5.21571306	    -12.83205123	     33.23718388	     33.23718388	     10.25229402	     -0.60980296	    -17.63151236	     23.03023457	     -3.73973861	     -0.17709424	     30.18663292	     30.18663292	     13.48609128	    -16.31230534	      7.82658081	     -8.00301816	      5.20940423	      3.86297711	     25.59669721	    -14.43933546	    -15.99843780	     31.26326606	     46.62505981	      0.00000000	      0.00000000	     12.59901365	    -13.00646283	     -0.53632238	     50.43792734	     46.41832300	      0.00000000	      0.00000000
